# xmcd
# 
# Track frame offsets:
#     150
#     13583
#     24492
#     37398
#     51107
#     63390
#     75549
#     88288
#     103302
#     118882
#     130941
#     142833
#     157526
# 
# Disc length: 2256
# 
# Revision: 1
# Processed by: cddbd v1.5.2PL0 Copyright (c) Steve Scherf et al.
# Submitted via: BonkEnc v1.0.8
# 
DISCID=ab08ce0d
DTITLE=TATAO E HELINHO - EM TODOS OS CANTOS
DYEAR=2008
DGENRE=Country
TTITLE0=UIRAPURU
TTITLE1=CABOCLO SERTANEJO
TTITLE2=REVIVER
TTITLE3=TURNÊ PELO ESTADO
TTITLE4=ABC DAS NAMORADAS
TTITLE5=MINEIRO DO PANDEIRO
TTITLE6=DE VOLTA À BOATE AZUL
TTITLE7=PESCADOR
TTITLE8=MEU PAI
TTITLE9=TROVEJOU, RELAMPIOU
TTITLE10=VI MAS NÃO VI
TTITLE11=UIRAPURU
TTITLE12=EM TODOS CANTOS
EXTD=
EXTT0=
EXTT1=
EXTT2=
EXTT3=
EXTT4=
EXTT5=
EXTT6=
EXTT7=
EXTT8=
EXTT9=
EXTT10=
EXTT11=
EXTT12=
PLAYORDER=
